<?xml version="1.0" encoding="UTF-8"?>
<svg id="Capa_1" data-name="Capa 1" xmlns="http://www.w3.org/2000/svg" viewBox="0 0 512 439.8">
  <defs>
    <style>
      .cls-1 {
        fill: #fff;
      }
    </style>
  </defs>
  <path class="cls-1" d="M512,305.24h-92.99L262.56,49.24v59.08h-10.94V17.51c0-5.01,10.79-15.26,16.52-16.3,9.33-1.7,46.83-1.45,56.91-.23,2.41.29,4.79.04,6.47,2.28l180.48,301.98Z"/>
  <path class="cls-1" d="M92.99,134.57l156.44,256v-59.08h10.94v90.8c0,5.01-10.79,15.26-16.52,16.3-9.3,1.69-46.86,1.45-56.9.23-2.41-.29-4.8-.02-6.47-2.29L0,134.57h92.99Z"/>
  <path class="cls-1" d="M336.95,217.73c1.77,7.52-10.14,3.54-15.88,4.89-35.56,8.37-64.36,40.79-62.89,78.24-5.44.39-3.76.55-4.32-3.28-6.32-43.23-32.48-75.34-78.81-75.49-1.77-7.52,10.14-3.54,15.88-4.89,24.21-5.7,46.73-23.09,56.74-46.1,4.72-10.86,4.29-22.01,9.44-32.14,1.43,41.31,37,81.07,79.84,78.77Z"/>
</svg>